<?xml version="1.0" encoding="utf-8" standalone="yes"?>
<!DOCTYPE svg PUBLIC "-//W3C//DTD SVG 1.1//EN" "http://www.w3.org/Graphics/SVG/1.1/DTD/svg11.dtd">
<svg width="1023" height="837" viewBox="0 0 1023 837" style="fill:none;stroke:none;fill-rule:evenodd;clip-rule:evenodd;stroke-linecap:round;stroke-linejoin:round;stroke-miterlimit:1.5;" version="1.1" xmlns="http://www.w3.org/2000/svg" xmlns:xlink="http://www.w3.org/1999/xlink"><style class="text-font-style fontImports" data-font-family="Roboto">@import url('https://fonts.googleapis.com/css2?family=Roboto:wght@400;700&amp;display=block');</style><g id="items" style="isolation: isolate"><g id="blend" style="mix-blend-mode: normal"><g id="g-root-0.g-0_fr_dg3epja1l1j6-fill" data-item-order="-718298" transform="translate(357, 160)"><g id="0.g-0_fr_dg3epja1l1j6-fill" stroke="none" fill="#f5f5f5"><g><path d="M 640 10L 550 64L 550 118L 460 172L 460 226L 370 280.003L 370 334L 280 388L 280 442L 190 496L 190 550L 100 604L 10 550L 10 565.609L 100 619.609L 202 558.109L 202 504.009L 292 450L 292 396.009L 382 341.982L 382 288.012L 472 234L 472 180.009L 562 126.003L 562 68.4L 640 24.7151L 640 10Z"></path></g></g><g id="0.g-0_fr_dg3epja1l1j6-fill" stroke="none" fill="#f5f5f5"><g><path d="M 550 64L 460 10L 460 64L 550 118L 550 64Z"></path></g></g><g id="0.g-0_fr_dg3epja1l1j6-fill" stroke="none" fill="#f5f5f5"><g><path d="M 460 172L 370 118L 370 172L 460 226L 460 172Z"></path></g></g><g id="0.g-0_fr_dg3epja1l1j6-fill" stroke="none" fill="#f5f5f5"><g><path d="M 370 280L 280 226L 280 280L 370 334L 370 280Z"></path></g></g><g id="0.g-0_fr_dg3epja1l1j6-fill" stroke="none" fill="#f5f5f5"><g><path d="M 280 388L 190 334L 190 388L 280 442L 280 388Z"></path></g></g><g id="0.g-0_fr_dg3epja1l1j6-fill" stroke="none" fill="#f5f5f5"><g><path d="M 190 496L 100 442L 100 497L 190 550L 190 496Z"></path></g></g></g><g id="g-root-1.g-1_fr_4mwc7a1l349-fill" data-item-order="-718284" transform="translate(357, 646)"><g id="1.g-1_fr_4mwc7a1l349-fill" stroke="none" fill="#fff2e5"><g><path d="M 100 10L 10 64L 100 118L 190 64L 100 10ZM 29 64L 100 22L 171 64L 100 106L 29 64Z"></path></g></g></g><g id="g-root-2.g-2_fr_1upxg6va1l3pf-fill" data-item-order="-718280" transform="translate(447, 538)"><g id="2.g-2_fr_1upxg6va1l3pf-fill" stroke="none" fill="#e8f9ff"><g><path d="M 100 10L 10 64L 100 118L 190 64L 100 10ZM 29 64L 100 22L 171 64L 100 106L 29 64Z"></path></g></g></g><g id="g-root-3.g-3_fr_1luwx13a1l1cd-fill" data-item-order="-718276" transform="translate(537, 430)"><g id="3.g-3_fr_1luwx13a1l1cd-fill" stroke="none" fill="#e3fff2"><g><path d="M 100 10L 10 64L 100 118L 190 64L 100 10ZM 29 64L 100 22L 171 64L 100 106L 29 64Z"></path></g></g></g><g id="g-root-4.g-4_fr_1hf3ewna1l24n-fill" data-item-order="-718272" transform="translate(627, 322)"><g id="4.g-4_fr_1hf3ewna1l24n-fill" stroke="none" fill="#f4ffdc"><g><path d="M 100 10L 10 64L 100 118L 190 64L 100 10ZM 29 64L 100 22L 171 64L 100 106L 29 64Z"></path></g></g></g><g id="g-root-5.g-5_fr_1cz9ws7a1l2wx-fill" data-item-order="-718268" transform="translate(717, 214)"><g id="5.g-5_fr_1cz9ws7a1l2wx-fill" stroke="none" fill="#e8f9ff"><g><path d="M 100 10L 10 64L 100 118L 190 64L 100 10ZM 29 64L 100 22L 171 64L 100 106L 29 64Z"></path></g></g></g><g id="g-root-6.g-6_fr_zofvhza1l1c3-fill" data-item-order="-718264" transform="translate(807, 106)"><g id="6.g-6_fr_zofvhza1l1c3-fill" stroke="none" fill="#fff2e5"><g><path d="M 100 10L 10 64L 100 118L 190 64L 100 10ZM 29 64L 100 22L 171 64L 100 106L 29 64Z"></path></g></g></g><g id="g-root-2.text-2_fr_qssv93a1l24t-fill" data-item-order="-718248" transform="translate(171, 544)"><g id="2.text-2_fr_qssv93a1l24t-fill" stroke="none" fill="#e8f9ff"><g><path d="M 10 10L 16 10L 16 106L 10 106Z"></path></g></g></g><g id="g-root-3.text-3_fr_dhccvra1l3pq-fill" data-item-order="-718234" transform="translate(261, 436)"><g id="3.text-3_fr_dhccvra1l3pq-fill" stroke="none" fill="#e3fff2"><g><path d="M 10 10L 16 10L 16 106L 10 106Z"></path></g></g></g><g id="g-root-1.text-1_fr_925bufa1l1c7-fill" data-item-order="-718220" transform="translate(81, 670)"><g id="1.text-1_fr_925bufa1l1c7-fill" stroke="none" fill="#fff2e5"><g><path d="M 10 10L 16 10L 16 106L 10 106Z"></path></g></g></g><g id="g-root-4.text-4_fr_4mbtpza1l24g-fill" data-item-order="-718204" transform="translate(351, 340)"><g id="4.text-4_fr_4mbtpza1l24g-fill" stroke="none" fill="#f4ffdc"><g><path d="M 10 10L 16 10L 16 82L 10 82Z"></path></g></g></g><g id="g-root-5.text-5_fr_1qbzdbra1l3i9-fill" data-item-order="-718190" transform="translate(441, 232)"><g id="5.text-5_fr_1qbzdbra1l3i9-fill" stroke="none" fill="#e8f9ff"><g><path d="M 10 10L 16 10L 16 82L 10 82Z"></path></g></g></g><g id="g-root-6.text-6_fr_1hgyu5za1l156-fill" data-item-order="-718176" transform="translate(531, 112)"><g id="6.text-6_fr_1hgyu5za1l156-fill" stroke="none" fill="#fff2e5"><g><path d="M 10 10L 16 10L 16 106L 10 106Z"></path></g></g></g><g id="g-root-2_1luafxza1s1s5-fill" data-item-order="0" transform="translate(873, 136)"></g><g id="g-root-tx_4_dbq33ra1uvil-fill" data-item-order="0" transform="translate(297, 340)"><g id="tx_4_dbq33ra1uvil-fill" stroke="none" fill="#92bd39"><g><text style="font: bold 30px Roboto, sans-serif; white-space: pre;" font-weight="bold" font-size="30px" font-family="Roboto, sans-serif"><tspan x="13.39" y="46" dominant-baseline="ideographic">4</tspan></text></g></g></g><g id="g-root-tx_desarrol_1480853a1tgy3-fill" data-item-order="0" transform="translate(369, 340)"><g id="tx_desarrol_1480853a1tgy3-fill" stroke="none" fill="#92bd39"><g><text style="font: bold 20px Roboto, sans-serif; white-space: pre;" font-weight="bold" font-size="20px" font-family="Roboto, sans-serif"><tspan x="12" y="34" dominant-baseline="ideographic">Desarrollo de APIs</tspan></text></g></g></g><g id="g-root-1_dcck6va1pa17-fill" data-item-order="0" transform="translate(693, 352)"></g><g id="g-root-tx_aprender_qwjprra1tij0-fill" data-item-order="0" transform="translate(369, 376)"><g id="tx_aprender_qwjprra1tij0-fill" stroke="none" fill="#484848"><g><text style="font: 15px Roboto, sans-serif; white-space: pre;" font-size="15px" font-family="Roboto, sans-serif"><tspan x="12" y="28" dominant-baseline="ideographic">Aprender a construir y conectar </tspan><tspan x="12" y="46" dominant-baseline="ideographic">servicios backend.</tspan></text></g></g></g><g id="g-root-tx_3_qvarlja1tgcv-fill" data-item-order="0" transform="translate(207, 436)"><g id="tx_3_qvarlja1tgcv-fill" stroke="none" fill="#3cc583"><g><text style="font: bold 30px Roboto, sans-serif; white-space: pre;" font-weight="bold" font-size="30px" font-family="Roboto, sans-serif"><tspan x="13.39" y="46" dominant-baseline="ideographic">3</tspan></text></g></g></g><g id="g-root-tx_enfocars_1ulk4l3a1uxon-fill" data-item-order="0" transform="translate(459, 268)"><g id="tx_enfocars_1ulk4l3a1uxon-fill" stroke="none" fill="#484848"><g><text style="font: 15px Roboto, sans-serif; white-space: pre;" font-size="15px" font-family="Roboto, sans-serif"><tspan x="12" y="28" dominant-baseline="ideographic">Asegurando la claridad y la calidad </tspan><tspan x="12" y="46" dominant-baseline="ideographic">del proyecto.</tspan></text></g></g></g><g id="g-root-tx_desarrol_1hhlb93a1tgct-fill" data-item-order="0" transform="translate(279, 436)"><g id="tx_desarrol_1hhlb93a1tgct-fill" stroke="none" fill="#3cc583"><g><text style="font: bold 20px Roboto, sans-serif; white-space: pre;" font-weight="bold" font-size="20px" font-family="Roboto, sans-serif"><tspan x="12" y="34" dominant-baseline="ideographic">Desarrollo Frontend</tspan></text></g></g></g><g id="g-root-tx_automati_13z9kxja1uxop-fill" data-item-order="0" transform="translate(549, 112)"><g id="tx_automati_13z9kxja1uxop-fill" stroke="none" fill="#de8431"><g><text style="font: bold 20px Roboto, sans-serif; white-space: pre;" font-weight="bold" font-size="20px" font-family="Roboto, sans-serif"><tspan x="12" y="34" dominant-baseline="ideographic">Automatización con </tspan><tspan x="12" y="58" dominant-baseline="ideographic">DevOps</tspan></text></g></g></g><g id="g-root-tx_automati_zk2jw7a1uvb6-fill" data-item-order="0" transform="translate(549, 172)"><g id="tx_automati_zk2jw7a1uvb6-fill" stroke="none" fill="#484848"><g><text style="font: 15px Roboto, sans-serif; white-space: pre;" font-size="15px" font-family="Roboto, sans-serif"><tspan x="12" y="28" dominant-baseline="ideographic">Automatizar procesos y mejorar la </tspan><tspan x="12" y="46" dominant-baseline="ideographic">eficiencia del desarrollo.</tspan></text></g></g></g><g id="g-root-edit_1hf3ewna1nuh2-fill" data-item-order="0" transform="translate(603, 460)"></g><g id="g-root-tx_2_1qclueva1tipw-fill" data-item-order="0" transform="translate(117, 544)"><g id="tx_2_1qclueva1tipw-fill" stroke="none" fill="#1eabda"><g><text style="font: bold 30px Roboto, sans-serif; white-space: pre;" font-weight="bold" font-size="30px" font-family="Roboto, sans-serif"><tspan x="13.39" y="46" dominant-baseline="ideographic">2</tspan></text></g></g></g><g id="g-root-tx_aprender_940r3ra1tiq1-fill" data-item-order="0" transform="translate(99, 730)"><g id="tx_aprender_940r3ra1tiq1-fill" stroke="none" fill="#484848"><g><text style="font: 15px Roboto, sans-serif; white-space: pre;" font-size="15px" font-family="Roboto, sans-serif"><tspan x="12" y="28" dominant-baseline="ideographic">Aprender los conceptos básicos de </tspan><tspan x="12" y="46" dominant-baseline="ideographic">la codificación y la lógica.</tspan></text></g></g></g><g id="g-root-tx_controld_mdlu7ra1ti4q-fill" data-item-order="0" transform="translate(189, 544)"><g id="tx_controld_mdlu7ra1ti4q-fill" stroke="none" fill="#1eabda"><g><text style="font: bold 20px Roboto, sans-serif; white-space: pre;" font-weight="bold" font-size="20px" font-family="Roboto, sans-serif"><tspan x="12" y="34" dominant-baseline="ideographic">Control de Versiones</tspan></text></g></g></g><g id="g-root-2_1lvje47a1qpsc-fill" data-item-order="0" transform="translate(783, 244)"></g><g id="g-root-tx_dominarl_4myat3a1thc3-fill" data-item-order="0" transform="translate(189, 580)"><g id="tx_dominarl_4myat3a1thc3-fill" stroke="none" fill="#484848"><g><text style="font: 15px Roboto, sans-serif; white-space: pre;" font-size="15px" font-family="Roboto, sans-serif"><tspan x="12" y="31" dominant-baseline="ideographic">Dominar las herramientas para </tspan><tspan x="12" y="49" dominant-baseline="ideographic">gestionar y rastrear cambios en el </tspan><tspan x="12" y="67" dominant-baseline="ideographic">código.</tspan></text></g></g></g><g id="g-root-2_93ea0na1mhop-fill" data-item-order="0" transform="translate(513, 568)"></g><g id="g-root-tx_6_m8m1iva1uww3-fill" data-item-order="0" transform="translate(477, 112)"><g id="tx_6_m8m1iva1uww3-fill" stroke="none" fill="#de8431"><g><text style="font: bold 30px Roboto, sans-serif; white-space: pre;" font-weight="bold" font-size="30px" font-family="Roboto, sans-serif"><tspan x="13.39" y="46" dominant-baseline="ideographic">6</tspan></text></g></g></g><g id="g-root-tx_1_1qeh9o7a1thqa-fill" data-item-order="0" transform="translate(27, 670)"><g id="tx_1_1qeh9o7a1thqa-fill" stroke="none" fill="#de8431"><g><text style="font: bold 30px Roboto, sans-serif; white-space: pre;" font-weight="bold" font-size="30px" font-family="Roboto, sans-serif"><tspan x="13.39" y="46" dominant-baseline="ideographic">1</tspan></text></g></g></g><g id="g-root-tx_5_1haq3ava1uw3s-fill" data-item-order="0" transform="translate(387, 232)"><g id="tx_5_1haq3ava1uw3s-fill" stroke="none" fill="#1eabda"><g><text style="font: bold 30px Roboto, sans-serif; white-space: pre;" font-weight="bold" font-size="30px" font-family="Roboto, sans-serif"><tspan x="13.39" y="46" dominant-baseline="ideographic">5</tspan></text></g></g></g><g id="g-root-tx_fundamen_hznrcna1thxc-fill" data-item-order="0" transform="translate(99, 670)"><g id="tx_fundamen_hznrcna1thxc-fill" stroke="none" fill="#de8431"><g><text style="font: bold 20px Roboto, sans-serif; white-space: pre;" font-weight="bold" font-size="20px" font-family="Roboto, sans-serif"><tspan x="12" y="34" dominant-baseline="ideographic">Fundamentos de </tspan><tspan x="12" y="58" dominant-baseline="ideographic">Programación</tspan></text></g></g></g><g id="g-root-1_quogsoaln1fr-fill" data-item-order="0" transform="translate(423, 676)"></g><g id="g-root-tx_document_9kqfa1ux3i-fill" data-item-order="0" transform="translate(459, 232)"><g id="tx_document_9kqfa1ux3i-fill" stroke="none" fill="#1eabda"><g><text style="font: bold 20px Roboto, sans-serif; white-space: pre;" font-weight="bold" font-size="20px" font-family="Roboto, sans-serif"><tspan x="12" y="34" dominant-baseline="ideographic">Documentación y Pruebas</tspan></text></g></g></g><g id="g-root-tx_desarrol_1464svra1thxq-fill" data-item-order="0" transform="translate(279, 472)"><g id="tx_desarrol_1464svra1thxq-fill" stroke="none" fill="#484848"><g><text style="font: 15px Roboto, sans-serif; white-space: pre;" font-size="15px" font-family="Roboto, sans-serif"><tspan x="12" y="31" dominant-baseline="ideographic">Desarrollar habilidades en la </tspan><tspan x="12" y="49" dominant-baseline="ideographic">creación de interfaces de usuario </tspan><tspan x="12" y="67" dominant-baseline="ideographic">atractivas.</tspan></text></g></g></g><g id="g-root-0.g-0_fr_dg3epja1l1j6-stroke" data-item-order="-718298" transform="translate(357, 160)"><g id="0.g-0_fr_dg3epja1l1j6-stroke" fill="none" stroke-linecap="round" stroke-linejoin="round" stroke-miterlimit="4" stroke="#969696" stroke-width="2"><g><path d="M 640 10L 550 64L 550 118L 460 172L 460 226L 370 280.0029L 370 334L 280 388L 280 442L 190 496L 190 550L 100 604L 10 550L 10 565.6089L 100 619.6089L 202 558.1089L 202 504.009L 292 450L 292 396.009L 382 341.9815L 382 288.0119L 472 233.9996L 472 180.0089L 562 126.0035L 562 68.4L 640 24.7151L 640 10Z"></path></g></g><g id="0.g-0_fr_dg3epja1l1j6-stroke" fill="none" stroke-linecap="round" stroke-linejoin="round" stroke-miterlimit="4" stroke="#969696" stroke-width="2"><g><path d="M 550 64L 460 10L 460 64L 550 118L 550 64Z"></path></g></g><g id="0.g-0_fr_dg3epja1l1j6-stroke" fill="none" stroke-linecap="round" stroke-linejoin="round" stroke-miterlimit="4" stroke="#969696" stroke-width="2"><g><path d="M 460 172L 370 118L 370 172L 460 226L 460 172Z"></path></g></g><g id="0.g-0_fr_dg3epja1l1j6-stroke" fill="none" stroke-linecap="round" stroke-linejoin="round" stroke-miterlimit="4" stroke="#969696" stroke-width="2"><g><path d="M 370 280L 280 226L 280 280L 370 334L 370 280Z"></path></g></g><g id="0.g-0_fr_dg3epja1l1j6-stroke" fill="none" stroke-linecap="round" stroke-linejoin="round" stroke-miterlimit="4" stroke="#969696" stroke-width="2"><g><path d="M 280 388L 190 334L 190 388L 280 442L 280 388Z"></path></g></g><g id="0.g-0_fr_dg3epja1l1j6-stroke" fill="none" stroke-linecap="round" stroke-linejoin="round" stroke-miterlimit="4" stroke="#969696" stroke-width="2"><g><path d="M 190 496L 100 442L 100 497L 190 550L 190 496Z"></path></g></g></g><g id="g-root-1.g-1_fr_4mwc7a1l349-stroke" data-item-order="-718284" transform="translate(357, 646)"><g id="1.g-1_fr_4mwc7a1l349-stroke" fill="none" stroke-linecap="round" stroke-linejoin="round" stroke-miterlimit="4" stroke="#de8431" stroke-width="2"><g><path d="M 100 10L 10 64L 100 118L 190 64L 100 10ZM 29 64L 100 22L 171 64L 100 106L 29 64Z"></path></g></g></g><g id="g-root-2.g-2_fr_1upxg6va1l3pf-stroke" data-item-order="-718280" transform="translate(447, 538)"><g id="2.g-2_fr_1upxg6va1l3pf-stroke" fill="none" stroke-linecap="round" stroke-linejoin="round" stroke-miterlimit="4" stroke="#1eabda" stroke-width="2"><g><path d="M 100 10L 10 64L 100 118L 190 64L 100 10ZM 29 64L 100 22L 171 64L 100 106L 29 64Z"></path></g></g></g><g id="g-root-3.g-3_fr_1luwx13a1l1cd-stroke" data-item-order="-718276" transform="translate(537, 430)"><g id="3.g-3_fr_1luwx13a1l1cd-stroke" fill="none" stroke-linecap="round" stroke-linejoin="round" stroke-miterlimit="4" stroke="#3cc583" stroke-width="2"><g><path d="M 100 10L 10 64L 100 118L 190 64L 100 10ZM 29 64L 100 22L 171 64L 100 106L 29 64Z"></path></g></g></g><g id="g-root-4.g-4_fr_1hf3ewna1l24n-stroke" data-item-order="-718272" transform="translate(627, 322)"><g id="4.g-4_fr_1hf3ewna1l24n-stroke" fill="none" stroke-linecap="round" stroke-linejoin="round" stroke-miterlimit="4" stroke="#92bd39" stroke-width="2"><g><path d="M 100 10L 10 64L 100 118L 190 64L 100 10ZM 29 64L 100 22L 171 64L 100 106L 29 64Z"></path></g></g></g><g id="g-root-5.g-5_fr_1cz9ws7a1l2wx-stroke" data-item-order="-718268" transform="translate(717, 214)"><g id="5.g-5_fr_1cz9ws7a1l2wx-stroke" fill="none" stroke-linecap="round" stroke-linejoin="round" stroke-miterlimit="4" stroke="#1eabda" stroke-width="2"><g><path d="M 100 10L 10 64L 100 118L 190 64L 100 10ZM 29 64L 100 22L 171 64L 100 106L 29 64Z"></path></g></g></g><g id="g-root-6.g-6_fr_zofvhza1l1c3-stroke" data-item-order="-718264" transform="translate(807, 106)"><g id="6.g-6_fr_zofvhza1l1c3-stroke" fill="none" stroke-linecap="round" stroke-linejoin="round" stroke-miterlimit="4" stroke="#de8431" stroke-width="2"><g><path d="M 100 10L 10 64L 100 118L 190 64L 100 10ZM 29 64L 100 22L 171 64L 100 106L 29 64Z"></path></g></g></g><g id="g-root-2.text-2_fr_qssv93a1l24t-stroke" data-item-order="-718248" transform="translate(171, 544)"><g id="2.text-2_fr_qssv93a1l24t-stroke" fill="none" stroke-linecap="round" stroke-linejoin="round" stroke-miterlimit="4" stroke="#1eabda" stroke-width="2"><g><path d="M 10 10L 16 10L 16 106L 10 106Z"></path></g></g></g><g id="g-root-3.text-3_fr_dhccvra1l3pq-stroke" data-item-order="-718234" transform="translate(261, 436)"><g id="3.text-3_fr_dhccvra1l3pq-stroke" fill="none" stroke-linecap="round" stroke-linejoin="round" stroke-miterlimit="4" stroke="#3cc583" stroke-width="2"><g><path d="M 10 10L 16 10L 16 106L 10 106Z"></path></g></g></g><g id="g-root-1.text-1_fr_925bufa1l1c7-stroke" data-item-order="-718220" transform="translate(81, 670)"><g id="1.text-1_fr_925bufa1l1c7-stroke" fill="none" stroke-linecap="round" stroke-linejoin="round" stroke-miterlimit="4" stroke="#de8431" stroke-width="2"><g><path d="M 10 10L 16 10L 16 106L 10 106Z"></path></g></g></g><g id="g-root-4.text-4_fr_4mbtpza1l24g-stroke" data-item-order="-718204" transform="translate(351, 340)"><g id="4.text-4_fr_4mbtpza1l24g-stroke" fill="none" stroke-linecap="round" stroke-linejoin="round" stroke-miterlimit="4" stroke="#92bd39" stroke-width="2"><g><path d="M 10 10L 16 10L 16 82L 10 82Z"></path></g></g></g><g id="g-root-5.text-5_fr_1qbzdbra1l3i9-stroke" data-item-order="-718190" transform="translate(441, 232)"><g id="5.text-5_fr_1qbzdbra1l3i9-stroke" fill="none" stroke-linecap="round" stroke-linejoin="round" stroke-miterlimit="4" stroke="#1eabda" stroke-width="2"><g><path d="M 10 10L 16 10L 16 82L 10 82Z"></path></g></g></g><g id="g-root-6.text-6_fr_1hgyu5za1l156-stroke" data-item-order="-718176" transform="translate(531, 112)"><g id="6.text-6_fr_1hgyu5za1l156-stroke" fill="none" stroke-linecap="round" stroke-linejoin="round" stroke-miterlimit="4" stroke="#de8431" stroke-width="2"><g><path d="M 10 10L 16 10L 16 106L 10 106Z"></path></g></g></g><g id="g-root-2_1luafxza1s1s5-stroke" data-item-order="0" transform="translate(873, 136)"><g id="2_1luafxza1s1s5-stroke" fill="none" stroke-linecap="round" stroke-linejoin="round" stroke-miterlimit="4" stroke="#de8431" stroke-width="2"><g><path d="M 20.5 38.5L 20.5 47.5L 11.5 47.5M 47.5 29.5L 47.5 20.5L 56.5 20.5M 48.099998 20.5C 51.5 24.1 53.5 28.700001 53.5 34.099998C 53.5 44.900002 44.700001 53.700001 33.900002 53.700001C 31.299999 53.700001 28.700041 53.099998 26.300039 52.299999M 19.9 47.5C 16.5 43.900002 14.5 39.299999 14.5 33.900002C 14.5 23.10004 23.299999 14.300039 34.099998 14.300039C 36.700001 14.300039 39.299999 14.90004 41.700001 15.70004M 33.900002 35.099998C 33.347801 35.099998 32.900002 34.652397 32.900002 34.099998C 32.900002 33.547798 33.347801 33.099998 33.900002 33.099998M 33.899799 35.099998C 34.452 35.099998 34.899799 34.652397 34.899799 34.099998C 34.899799 33.547798 34.452 33.099998 33.899799 33.099998M 10 10M 35.700001 25.7001L 36.299999 27.7001C 36.5 28.500099 37.299999 28.900101 37.900002 28.7001L 39.900002 28.3001C 41.700001 27.900101 42.900002 30.1 41.700001 31.5L 40.299999 33.099998C 39.700001 33.700001 39.700001 34.5 40.299999 35.099998L 41.700001 36.700001C 42.900002 38.099998 41.700001 40.299999 39.900002 39.900002L 37.900002 39.5C 37.099998 39.299999 36.5 39.700001 36.299999 40.5L 35.700001 42.5C 35.099998 44.299999 32.700001 44.299999 32.099998 42.5L 31.5 40.5C 31.299999 39.700001 30.5 39.299999 29.899981 39.5L 27.899981 39.900002C 26.099979 40.299999 24.899979 38.099998 26.099979 36.700001L 27.499981 35.099998C 28.099979 34.5 28.099979 33.700001 27.499981 33.099998L 26.099979 31.5C 24.899979 30.1 26.099979 27.900101 27.899981 28.3001L 29.899981 28.7001C 30.700001 28.900101 31.299999 28.500099 31.5 27.7001L 32.099998 25.7001C 32.700001 23.900101 35.299999 23.900101 35.700001 25.7001Z"></path></g></g></g><g id="g-root-tx_4_dbq33ra1uvil-stroke" data-item-order="0" transform="translate(297, 340)"></g><g id="g-root-tx_desarrol_1480853a1tgy3-stroke" data-item-order="0" transform="translate(369, 340)"></g><g id="g-root-1_dcck6va1pa17-stroke" data-item-order="0" transform="translate(693, 352)"><g id="1_dcck6va1pa17-stroke" fill="none" stroke-linecap="round" stroke-linejoin="round" stroke-miterlimit="4" stroke="#92bd39" stroke-width="2"><g><path d="M 16.348 45.931999L 12 57M 18 57L 19.785999 47M 51.652 45.931999L 56 57M 50 57L 48.214001 47M 38.664001 34.732002L 45.880001 40.503998M 22.119999 40.503998L 29.334 34.732002M 18.622 39.035999L 17.66 28.938M 30.195999 48.223999L 22.614 44.686001M 45.383999 44.688L 37.804001 48.223999M 50.334 29L 49.377998 39.026001M 37.697998 16.524L 47.414001 20.524M 20.584 20.524L 30.304001 16.521999M 15 43C 15 45.209141 16.790861 47 19 47C 21.209139 47 23 45.209141 23 43C 23 40.790863 21.209139 39 19 39C 16.790861 39 15 40.790863 15 43ZM 30 15C 30 17.209139 31.790861 19 34 19C 36.209137 19 38 17.209139 38 15C 38 12.790861 36.209137 11 34 11C 31.790861 11 30 12.790861 30 15ZM 12 24C 12 26.761423 14.238577 29 17 29C 19.761425 29 22 26.761423 22 24C 22 21.238577 19.761425 19 17 19C 14.238577 19 12 21.238577 12 24ZM 45 43C 45 45.209141 46.790859 47 49 47C 51.209141 47 53 45.209141 53 43C 53 40.790863 51.209141 39 49 39C 46.790859 39 45 40.790863 45 43ZM 46 24C 46 26.761423 48.238575 29 51 29C 53.761425 29 56 26.761423 56 24C 56 21.238577 53.761425 19 51 19C 48.238575 19 46 21.238577 46 24ZM 28.43 28.771999L 19 25M 49 25L 39.566002 28.774M 34 19L 34 25M 36.214001 36.576L 39 57M 29 57L 31.785999 36.576M 28 31C 28 34.313709 30.686293 37 34 37C 37.313709 37 40 34.313709 40 31C 40 27.686293 37.313709 25 34 25C 30.686293 25 28 27.686293 28 31Z"></path></g></g></g><g id="g-root-tx_aprender_qwjprra1tij0-stroke" data-item-order="0" transform="translate(369, 376)"></g><g id="g-root-tx_3_qvarlja1tgcv-stroke" data-item-order="0" transform="translate(207, 436)"></g><g id="g-root-tx_enfocars_1ulk4l3a1uxon-stroke" data-item-order="0" transform="translate(459, 268)"></g><g id="g-root-tx_desarrol_1hhlb93a1tgct-stroke" data-item-order="0" transform="translate(279, 436)"></g><g id="g-root-tx_automati_13z9kxja1uxop-stroke" data-item-order="0" transform="translate(549, 112)"></g><g id="g-root-tx_automati_zk2jw7a1uvb6-stroke" data-item-order="0" transform="translate(549, 172)"></g><g id="g-root-edit_1hf3ewna1nuh2-stroke" data-item-order="0" transform="translate(603, 460)"><g id="edit_1hf3ewna1nuh2-stroke" fill="none" stroke-linecap="round" stroke-linejoin="round" stroke-miterlimit="4" stroke="#3cc583" stroke-width="2"><g><path d="M 11.034 19.007999L 51.034 19.007999M 17.034 14.512L 17.034 14.512M 17.034 14.512C 16.757858 14.512 16.534 14.735857 16.534 15.012C 16.534 15.288142 16.757858 15.512 17.034 15.512C 17.310143 15.512 17.534 15.288142 17.534 15.012C 17.534 14.735857 17.310143 14.512 17.034 14.512M 21.034 14.512L 21.034 14.512M 21.034 14.512C 20.757858 14.512 20.534 14.735857 20.534 15.012C 20.534 15.288142 20.757858 15.512 21.034 15.512C 21.310143 15.512 21.534 15.288142 21.534 15.012C 21.534 14.735857 21.310143 14.512 21.034 14.512M 25.034 14.512L 25.034 14.512M 25.034 14.512C 24.757858 14.512 24.534 14.735857 24.534 15.012C 24.534 15.288142 24.757858 15.512 25.034 15.512C 25.310143 15.512 25.534 15.288142 25.534 15.012C 25.534 14.735857 25.310143 14.512 25.034 14.512M 29.034 43L 15.034 43C 12.824862 43 11.034 41.209137 11.034 39L 11.034 15C 11.034 12.790861 12.824862 11 15.034 11L 47.034 11C 49.243137 11 51.034 12.790861 51.034 15L 51.034 29M 41.436001 54.610001L 33.035999 57.009998L 35.436001 48.610001L 49.799999 34.251999C 51.456852 32.595146 54.143143 32.595146 55.799999 34.251999C 57.456852 35.908852 57.456852 38.595146 55.799999 40.251999ZM 47.993999 36.052002L 53.993999 42.051998M 35.436001 48.610001L 41.436001 54.610001"></path></g></g></g><g id="g-root-tx_2_1qclueva1tipw-stroke" data-item-order="0" transform="translate(117, 544)"></g><g id="g-root-tx_aprender_940r3ra1tiq1-stroke" data-item-order="0" transform="translate(99, 730)"></g><g id="g-root-tx_controld_mdlu7ra1ti4q-stroke" data-item-order="0" transform="translate(189, 544)"></g><g id="g-root-2_1lvje47a1qpsc-stroke" data-item-order="0" transform="translate(783, 244)"><g id="2_1lvje47a1qpsc-stroke" fill="none" stroke-linecap="round" stroke-linejoin="round" stroke-miterlimit="4" stroke="#1eabda" stroke-width="2"><g><path d="M 29.298441 28.323441C 32.048599 28.323441 34.278 26.094 34.278 23.34384C 34.278 20.5937 32.048599 18.36426 29.298441 18.36426C 26.548281 18.36426 24.31884 20.5937 24.31884 23.34384C 24.31884 26.094 26.548281 28.323441 29.298441 28.323441ZM 50.500599 31.117599L 53.535999 31.117599C 54.0728 31.117599 54.587399 31.330799 54.966999 31.7104C 55.346401 32.089798 55.559601 32.604599 55.559601 33.141197L 55.559601 53.377201C 55.559601 53.913799 55.346401 54.4286 54.966999 54.807999C 54.587399 55.187599 54.0728 55.400799 53.535999 55.400799L 37.347401 55.400799C 36.8106 55.400799 36.295998 55.187599 35.916401 54.807999C 35.537003 54.4286 35.323799 53.913799 35.323799 53.377201L 35.323799 33.141197C 35.323799 32.604599 35.537003 32.089798 35.916401 31.7104C 36.295998 31.330799 36.8106 31.117599 37.347401 31.117599L 40.382797 31.117599M 48.478199 28.244261L 42.407398 28.244261C 41.289803 28.244261 40.383801 29.150261 40.383801 30.267799L 40.383801 32.365799C 40.383801 33.483398 41.289803 34.3894 42.407398 34.3894L 48.478199 34.3894C 49.595798 34.3894 50.501801 33.483398 50.501801 32.365799L 50.501801 30.267799C 50.501801 29.150261 49.595798 28.244261 48.478199 28.244261ZM 10 10M 41.140198 46.8918L 44.368 49.0438L 49.748001 40.436001M 45.4272 25.152519C 46.404598 24.08864 46.404598 22.59918 45.4272 21.53532C 42.739399 18.556461 36.630798 12.5987 29.30032 12.5987C 21.969921 12.5987 15.86128 18.556461 13.17346 21.53532C 12.19608 22.59918 12.19608 24.08864 13.17346 25.152519C 15.86128 28.34416 21.969921 34.089199 29.30032 34.089199C 30.0294 34.089199 30.746599 34.030197 31.4494 33.920998"></path></g></g></g><g id="g-root-tx_dominarl_4myat3a1thc3-stroke" data-item-order="0" transform="translate(189, 580)"></g><g id="g-root-2_93ea0na1mhop-stroke" data-item-order="0" transform="translate(513, 568)"><g id="2_93ea0na1mhop-stroke" fill="none" stroke-linecap="round" stroke-linejoin="round" stroke-miterlimit="4" stroke="#1eabda" stroke-width="2"><g><path d="M 40.5 19L 26.5 19L 30.5 11L 44.5 11L 40.5 19ZM 21.5 41L 12.5 36L 21.5 31L 30.5 36L 21.5 41ZM 21.5 41L 21.5 46M 16 51.5C 16 54.537567 18.462433 57 21.5 57C 24.537567 57 27 54.537567 27 51.5C 27 48.462437 24.537567 46 21.5 46C 18.462433 46 16 48.462437 16 51.5M 10 10M 46.5 41L 37.5 36L 46.5 31L 55.5 36L 46.5 41ZM 46.5 31L 46.5 29C 46.5 27.89543 45.604568 27 44.5 27L 23.5 27C 22.395432 27 21.5 27.89543 21.5 29L 21.5 31M 46.5 41L 46.5 46M 41 51.5C 41 54.537567 43.462437 57 46.5 57C 49.537567 57 52 54.537567 52 51.5C 52 48.462437 49.537567 46 46.5 46C 43.462437 46 41 48.462437 41 51.5M 34.5 19L 34.5 27"></path></g></g></g><g id="g-root-tx_6_m8m1iva1uww3-stroke" data-item-order="0" transform="translate(477, 112)"></g><g id="g-root-tx_1_1qeh9o7a1thqa-stroke" data-item-order="0" transform="translate(27, 670)"></g><g id="g-root-tx_5_1haq3ava1uw3s-stroke" data-item-order="0" transform="translate(387, 232)"></g><g id="g-root-tx_fundamen_hznrcna1thxc-stroke" data-item-order="0" transform="translate(99, 670)"></g><g id="g-root-1_quogsoaln1fr-stroke" data-item-order="0" transform="translate(423, 676)"><g id="1_quogsoaln1fr-stroke" fill="none" stroke-linecap="round" stroke-linejoin="round" stroke-miterlimit="4" stroke="#de8431" stroke-width="2"><g><path d="M 33 43C 33 49.627419 38.372581 55 45 55C 51.627419 55 57 49.627419 57 43C 57 36.372581 51.627419 31.000002 45 31.000002C 38.372581 31.000002 33 36.372581 33 43M 48 48.200001C 46.143593 49.271797 43.856407 49.271797 42 48.200001M 45 31C 46.656857 31 48 32.343147 48 34C 48 35.656853 46.656857 37 45 37M 50.25 40C 50.664215 40 51 40.335785 51 40.75M 49.5 40.75C 49.5 40.335785 49.835789 40 50.25 40M 50.25 41.5C 49.835789 41.5 49.5 41.164215 49.5 40.75M 51 40.75C 51 41.164215 50.664215 41.5 50.25 41.5M 39.75 40C 40.164215 40 40.5 40.335785 40.5 40.75M 39 40.75C 39 40.335785 39.335785 40 39.75 40M 39.75 41.5C 39.335785 41.5 39 41.164215 39 40.75M 40.5 40.75C 40.5 41.164215 40.164215 41.5 39.75 41.5M 28.5 47L 15 47C 12.790861 47 11 45.209141 11 43L 11 17C 11 14.790861 12.790861 13 15 13L 45 13C 47.209141 13 49 14.790861 49 17L 49 27M 11 23L 49 23M 18 17.5C 18.276142 17.5 18.5 17.723858 18.5 18C 18.5 18.276142 18.276142 18.5 18 18.5C 17.723858 18.5 17.5 18.276142 17.5 18C 17.5 17.723858 17.723858 17.5 18 17.5M 24 17.5C 24.276142 17.5 24.5 17.723858 24.5 18C 24.5 18.276142 24.276142 18.5 24 18.5C 23.723858 18.5 23.5 18.276142 23.5 18C 23.5 17.723858 23.723858 17.5 24 17.5M 30 17.5C 30.276142 17.5 30.5 17.723858 30.5 18C 30.5 18.276142 30.276142 18.5 30 18.5C 29.723858 18.5 29.5 18.276142 29.5 18C 29.5 17.723858 29.723858 17.5 30 17.5"></path></g></g></g><g id="g-root-tx_document_9kqfa1ux3i-stroke" data-item-order="0" transform="translate(459, 232)"></g><g id="g-root-tx_desarrol_1464svra1thxq-stroke" data-item-order="0" transform="translate(279, 472)"></g></g></g></svg>