<?xml version="1.0" encoding="utf-8" standalone="yes"?>
<!DOCTYPE svg PUBLIC "-//W3C//DTD SVG 1.1//EN" "http://www.w3.org/Graphics/SVG/1.1/DTD/svg11.dtd">
<svg width="698" height="770" viewBox="0 0 698 770" style="fill:none;stroke:none;fill-rule:evenodd;clip-rule:evenodd;stroke-linecap:round;stroke-linejoin:round;stroke-miterlimit:1.5;" version="1.1" xmlns="http://www.w3.org/2000/svg" xmlns:xlink="http://www.w3.org/1999/xlink"><style class="text-font-style fontImports" data-font-family="Roboto">@import url('https://fonts.googleapis.com/css2?family=Roboto:wght@400;700&amp;display=block');</style><g id="items" style="isolation: isolate"><g id="blend" style="mix-blend-mode: normal"><g id="g-root-6.border-6_fr_mcz6w6ctgyyr-fill" data-item-order="-435445" transform="translate(135, 111)"></g><g id="g-root-6.icon_fr_5vo9ycth1cd-fill" data-item-order="-435423" transform="translate(211.65234375, 111)"></g><g id="g-root-5.border-5_fr_1lw5oyuctgzkf-fill" data-item-order="-435401" transform="translate(111, 231)"></g><g id="g-root-5.icon_3_fr_145i5k6ctgyrt-fill" data-item-order="-435379" transform="translate(187.65234375, 231)"></g><g id="g-root-4.border-4_fr_93e3s6ctgzk3-fill" data-item-order="-435357" transform="translate(87, 327)"></g><g id="g-root-4.icon_6_fr_1hi7m3qctgzd1-fill" data-item-order="-435335" transform="translate(163.65234375, 327)"></g><g id="g-root-3.border-3_fr_vbqkkmctgykv-fill" data-item-order="-435313" transform="translate(63, 423)"></g><g id="g-root-3.icon_9_fr_mg3kbqcth05d-fill" data-item-order="-435291" transform="translate(139.65234375, 423)"></g><g id="g-root-2.border-2_fr_dkgk2ucth0y3-fill" data-item-order="-435269" transform="translate(39, 519)"></g><g id="g-root-2.icon_12_fr_9mismctgzd9-fill" data-item-order="-435247" transform="translate(115.65234375, 519)"></g><g id="g-root-1.border-1_fr_18egfqectidqn-fill" data-item-order="-435225" transform="translate(15, 615)"></g><g id="g-root-1.icon_15_fr_qn6f8mctig3t-fill" data-item-order="-435205" transform="translate(111, 615)"></g><g id="g-root-tx_aseguran_1czw7mucto003-fill" data-item-order="0" transform="translate(327, 279)"><g id="tx_aseguran_1czw7mucto003-fill" stroke="none" fill="#969696"><g><text style="font: 15px Roboto, sans-serif; white-space: pre;" font-size="15px" font-family="Roboto, sans-serif"><tspan x="12" y="28" dominant-baseline="ideographic">Asegurando que el software esté bien </tspan><tspan x="12" y="46" dominant-baseline="ideographic">documentado y libre de errores.</tspan></text></g></g></g><g id="g-root-tx_document_90w7fqctnzey-fill" data-item-order="0" transform="translate(327, 243)"><g id="tx_document_90w7fqctnzey-fill" stroke="none" fill="#1eabda"><g><text style="font: bold 20px Roboto, sans-serif; white-space: pre;" font-weight="bold" font-size="20px" font-family="Roboto, sans-serif"><tspan x="12" y="34" dominant-baseline="ideographic">Documentación y Pruebas</tspan></text></g></g></g><g id="g-root-exch_1hgynxicto1dx-fill" data-item-order="0" transform="translate(207, 351)"></g><g id="g-root-tx_desarrol_hvwqlictpf5y-fill" data-item-order="0" transform="translate(303, 339)"><g id="tx_desarrol_hvwqlictpf5y-fill" stroke="none" fill="#92bd39"><g><text style="font: bold 20px Roboto, sans-serif; white-space: pre;" font-weight="bold" font-size="20px" font-family="Roboto, sans-serif"><tspan x="12" y="34" dominant-baseline="ideographic">Desarrollo de API</tspan></text></g></g></g><g id="g-root-tx_4_9255lycto1l0-fill" data-item-order="0" transform="translate(123, 357)"><g id="tx_4_9255lycto1l0-fill" stroke="none" fill="#92bd39"><g><text style="font: bold 30px Roboto, sans-serif; white-space: pre;" font-weight="bold" font-size="30px" font-family="Roboto, sans-serif"><tspan x="13.39" y="46" dominant-baseline="ideographic">4</tspan></text></g></g></g><g id="g-root-tx_construy_1uqjr1ictpe6n-fill" data-item-order="0" transform="translate(303, 375)"><g id="tx_construy_1uqjr1ictpe6n-fill" stroke="none" fill="#969696"><g><text style="font: 15px Roboto, sans-serif; white-space: pre;" font-size="15px" font-family="Roboto, sans-serif"><tspan x="12" y="28" dominant-baseline="ideographic">Construyendo la lógica del servidor y conectando </tspan><tspan x="12" y="46" dominant-baseline="ideographic">bases de datos.</tspan></text></g></g></g><g id="g-root-tx_aprendie_1lw5oyucttm2r-fill" data-item-order="0" transform="translate(231, 663)"><g id="tx_aprendie_1lw5oyucttm2r-fill" stroke="none" fill="#969696"><g><text style="font: 15px Roboto, sans-serif; white-space: pre;" font-size="15px" font-family="Roboto, sans-serif"><tspan x="12" y="28" dominant-baseline="ideographic">Aprendiendo los conceptos básicos de la codificación</tspan><tspan x="12" y="46" dominant-baseline="ideographic">y la lógica.</tspan></text></g></g></g><g id="g-root-tx_5_deuaauctmn0g-fill" data-item-order="0" transform="translate(147, 261)"><g id="tx_5_deuaauctmn0g-fill" stroke="none" fill="#1eabda"><g><text style="font: bold 30px Roboto, sans-serif; white-space: pre;" font-weight="bold" font-size="30px" font-family="Roboto, sans-serif"><tspan x="13.39" y="46" dominant-baseline="ideographic">5</tspan></text></g></g></g><g id="g-root-tx_3_1cz9qjqctpgjs-fill" data-item-order="0" transform="translate(99, 453)"><g id="tx_3_1cz9qjqctpgjs-fill" stroke="none" fill="#3cc583"><g><text style="font: bold 30px Roboto, sans-serif; white-space: pre;" font-weight="bold" font-size="30px" font-family="Roboto, sans-serif"><tspan x="13.39" y="46" dominant-baseline="ideographic">3</tspan></text></g></g></g><g id="g-root-2_mcz6w6ctpgjt-fill" data-item-order="0" transform="translate(183, 447)"></g><g id="g-root-tx_desarrol_18egfqects8oy-fill" data-item-order="0" transform="translate(279, 435)"><g id="tx_desarrol_18egfqects8oy-fill" stroke="none" fill="#3cc583"><g><text style="font: bold 20px Roboto, sans-serif; white-space: pre;" font-weight="bold" font-size="20px" font-family="Roboto, sans-serif"><tspan x="12" y="34" dominant-baseline="ideographic">Desarrollo Frontend</tspan></text></g></g></g><g id="g-root-tx_creandoi_m7ze7acts7wr-fill" data-item-order="0" transform="translate(279, 471)"><g id="tx_creandoi_m7ze7acts7wr-fill" stroke="none" fill="#969696"><g><text style="font: 15px Roboto, sans-serif; white-space: pre;" font-size="15px" font-family="Roboto, sans-serif"><tspan x="12" y="28" dominant-baseline="ideographic">Creando interfaces de usuario atractivas y </tspan><tspan x="12" y="46" dominant-baseline="ideographic">funcionales.</tspan></text></g></g></g><g id="g-root-tx_implemen_18gyc2uctmm87-fill" data-item-order="0" transform="translate(351, 159)"><g id="tx_implemen_18gyc2uctmm87-fill" stroke="none" fill="#969696"><g><text style="font: 15px Roboto, sans-serif; white-space: pre;" font-size="15px" font-family="Roboto, sans-serif"><tspan x="12" y="31" dominant-baseline="ideographic">Implementando prácticas para </tspan><tspan x="12" y="49" dominant-baseline="ideographic">automatizar y mejorar los flujos de </tspan><tspan x="12" y="67" dominant-baseline="ideographic">trabajo.</tspan></text></g></g></g><g id="g-root-2_1qd7ytkb5t98j-fill" data-item-order="0" transform="translate(255, 147)"></g><g id="g-root-tx_2_1umswiucts7po-fill" data-item-order="0" transform="translate(75, 549)"><g id="tx_2_1umswiucts7po-fill" stroke="none" fill="#1eabda"><g><text style="font: bold 30px Roboto, sans-serif; white-space: pre;" font-weight="bold" font-size="30px" font-family="Roboto, sans-serif"><tspan x="13.39" y="46" dominant-baseline="ideographic">2</tspan></text></g></g></g><g id="g-root-bran_1cviw12ctsa2t-fill" data-item-order="0" transform="translate(159, 543)"></g><g id="g-root-tx_controld_1lxen52ctsa32-fill" data-item-order="0" transform="translate(255, 531)"><g id="tx_controld_1lxen52ctsa32-fill" stroke="none" fill="#1eabda"><g><text style="font: bold 20px Roboto, sans-serif; white-space: pre;" font-weight="bold" font-size="20px" font-family="Roboto, sans-serif"><tspan x="12" y="34" dominant-baseline="ideographic">Control de Versiones</tspan></text></g></g></g><g id="g-root-tx_dominand_18mkluucts8i7-fill" data-item-order="0" transform="translate(255, 567)"><g id="tx_dominand_18mkluucts8i7-fill" stroke="none" fill="#969696"><g><text style="font: 15px Roboto, sans-serif; white-space: pre;" font-size="15px" font-family="Roboto, sans-serif"><tspan x="12" y="28" dominant-baseline="ideographic">Dominando las herramientas para gestionar y rastrear </tspan><tspan x="12" y="46" dominant-baseline="ideographic">cambios en el código.</tspan></text></g></g></g><g id="g-root-tx_6_vvl2ctig3w-fill" data-item-order="0" transform="translate(171, 153)"><g id="tx_6_vvl2ctig3w-fill" stroke="none" fill="#de8431"><g><text style="font: bold 30px Roboto, sans-serif; white-space: pre;" font-weight="bold" font-size="30px" font-family="Roboto, sans-serif"><tspan x="13.39" y="46" dominant-baseline="ideographic">6</tspan></text></g></g></g><g id="g-root-tx_automati_4hybvqctmln2-fill" data-item-order="0" transform="translate(351, 123)"><g id="tx_automati_4hybvqctmln2-fill" stroke="none" fill="#de8431"><g><text style="font: bold 20px Roboto, sans-serif; white-space: pre;" font-weight="bold" font-size="20px" font-family="Roboto, sans-serif"><tspan x="12" y="34" dominant-baseline="ideographic">Automatización DevOps</tspan></text></g></g></g><g id="g-root-tx_1_dkgk2ucts9ag-fill" data-item-order="0" transform="translate(51, 645)"><g id="tx_1_dkgk2ucts9ag-fill" stroke="none" fill="#de8431"><g><text style="font: bold 30px Roboto, sans-serif; white-space: pre;" font-weight="bold" font-size="30px" font-family="Roboto, sans-serif"><tspan x="13.39" y="46" dominant-baseline="ideographic">1</tspan></text></g></g></g><g id="g-root-1_1uux2nacts8ap-fill" data-item-order="0" transform="translate(135, 639)"></g><g id="g-root-tx_fundamen_4lp6eecttn2i-fill" data-item-order="0" transform="translate(231, 627)"><g id="tx_fundamen_4lp6eecttn2i-fill" stroke="none" fill="#de8431"><g><text style="font: bold 20px Roboto, sans-serif; white-space: pre;" font-weight="bold" font-size="20px" font-family="Roboto, sans-serif"><tspan x="12" y="34" dominant-baseline="ideographic">Fundamentos de Programación</tspan></text></g></g></g><g id="g-root-chec_4090mctmlfl-fill" data-item-order="0" transform="translate(231, 255)"></g><g id="g-root-6.border-6_fr_mcz6w6ctgyyr-stroke" data-item-order="-435445" transform="translate(135, 111)"><g id="6.border-6_fr_mcz6w6ctgyyr-stroke" fill="none" stroke-linecap="round" stroke-linejoin="round" stroke-miterlimit="4" stroke="#de8431" stroke-width="2"><g><path d="M 10 57C 10 31.0426 31.0426 10 57 10L 206.5 10M 10 82.999596L 10 56.986034M 10 83C 10 108.9576 31 130.0004 57 130.0004L 86.5 130.0004M 207 130.0004L 183 130.0004M 206.642944 10L 538.000244 10L 538.000244 130L 206.643143 130"></path></g></g></g><g id="g-root-6.icon_fr_5vo9ycth1cd-stroke" data-item-order="-435423" transform="translate(211.65234375, 111)"><g id="6.icon_fr_5vo9ycth1cd-stroke" fill="none" stroke-linecap="round" stroke-linejoin="round" stroke-miterlimit="4" stroke="#de8431" stroke-width="2"><g><path d="M 29.347656 23.4164C 29.347656 18.4588 31.036556 13.7576 33.989656 10M 129.989656 10C 127.036556 13.7576 125.347656 18.4587 125.347656 23.4164M 125.347656 23L 125.347656 107M 29.347656 107L 29.347656 23M 125.3474 106.871094C 125.3474 114.341794 120.7018 121.170994 113.3474 124.511994C 110.4109 125.845994 107.9063 127.736094 105.9568 130.001194M 29.3474 106.871094C 29.3474 114.341794 24.7018 121.170994 17.3474 124.511994C 14.4326 125.836194 11.9432 127.708294 10 129.951194"></path></g></g></g><g id="g-root-5.border-5_fr_1lw5oyuctgzkf-stroke" data-item-order="-435401" transform="translate(111, 231)"><g id="5.border-5_fr_1lw5oyuctgzkf-stroke" fill="none" stroke-linecap="round" stroke-linejoin="round" stroke-miterlimit="4" stroke="#1eabda" stroke-width="2"><g><path d="M 10 57C 10 31.0426 31.0426 10 57 10L 110.5 10M 10 58.999969L 10 56.980469M 10 59C 10 84.9576 31 106.0004 57 106.0004L 86.5 106.0004M 207 106.0004L 183 106.0004M 206.64296 10L 562.00026 10L 562.00026 106L 206.64316 106"></path></g></g></g><g id="g-root-5.icon_3_fr_145i5k6ctgyrt-stroke" data-item-order="-435379" transform="translate(187.65234375, 231)"><g id="5.icon_3_fr_145i5k6ctgyrt-stroke" fill="none" stroke-linecap="round" stroke-linejoin="round" stroke-miterlimit="4" stroke="#de8431" stroke-width="2"><g><path d="M 29.347656 23.4164C 29.347656 18.4588 31.036556 13.7576 33.989656 10M 129.989656 10C 127.036556 13.7576 125.347656 18.4587 125.347656 23.4164M 125.347656 23L 125.347656 83M 29.347656 83L 29.347656 23M 125.3474 82.871094C 125.3474 90.341794 120.7018 97.170994 113.3474 100.511994C 110.4109 101.845994 107.9063 103.736094 105.9568 106.001194M 29.3474 82.871094C 29.3474 90.341794 24.7018 97.170994 17.3474 100.511994C 14.4326 101.836194 11.9432 103.708294 10 105.951194"></path></g></g></g><g id="g-root-4.border-4_fr_93e3s6ctgzk3-stroke" data-item-order="-435357" transform="translate(87, 327)"><g id="4.border-4_fr_93e3s6ctgzk3-stroke" fill="none" stroke-linecap="round" stroke-linejoin="round" stroke-miterlimit="4" stroke="#92bd39" stroke-width="2"><g><path d="M 10 57C 10 31.0426 31.0426 10 57 10L 110.5 10M 10 58.999969L 10 56.980469M 10 59C 10 84.9576 31 106.0004 57 106.0004L 86.5 106.0004M 207 106.0004L 183 106.0004M 206.64296 10L 586.00026 10L 586.00026 106L 206.64316 106"></path></g></g></g><g id="g-root-4.icon_6_fr_1hi7m3qctgzd1-stroke" data-item-order="-435335" transform="translate(163.65234375, 327)"><g id="4.icon_6_fr_1hi7m3qctgzd1-stroke" fill="none" stroke-linecap="round" stroke-linejoin="round" stroke-miterlimit="4" stroke="#de8431" stroke-width="2"><g><path d="M 29.347656 23.4164C 29.347656 18.4588 31.036556 13.7576 33.989656 10M 129.989656 10C 127.036556 13.7576 125.347656 18.4587 125.347656 23.4164M 125.347656 23L 125.347656 83M 29.347656 83L 29.347656 23M 125.3474 82.871094C 125.3474 90.341794 120.7018 97.170994 113.3474 100.511994C 110.4109 101.845994 107.9063 103.736094 105.9568 106.001194M 29.3474 82.871094C 29.3474 90.341794 24.7018 97.170994 17.3474 100.511994C 14.4326 101.836194 11.9432 103.708294 10 105.951194"></path></g></g></g><g id="g-root-3.border-3_fr_vbqkkmctgykv-stroke" data-item-order="-435313" transform="translate(63, 423)"><g id="3.border-3_fr_vbqkkmctgykv-stroke" fill="none" stroke-linecap="round" stroke-linejoin="round" stroke-miterlimit="4" stroke="#3cc583" stroke-width="2"><g><path d="M 10 57C 10 31.0426 31.0426 10 57 10L 110.5 10M 10 58.999969L 10 56.980469M 10 59C 10 84.9576 31 106.0004 57 106.0004L 86.5 106.0004M 207 106.0004L 183 106.0004M 206.642975 10L 610.000275 10L 610.000275 106L 206.643175 106"></path></g></g></g><g id="g-root-3.icon_9_fr_mg3kbqcth05d-stroke" data-item-order="-435291" transform="translate(139.65234375, 423)"><g id="3.icon_9_fr_mg3kbqcth05d-stroke" fill="none" stroke-linecap="round" stroke-linejoin="round" stroke-miterlimit="4" stroke="#de8431" stroke-width="2"><g><path d="M 29.347656 23.4164C 29.347656 18.4588 31.036556 13.7576 33.989656 10M 129.989656 10C 127.036556 13.7576 125.347656 18.4587 125.347656 23.4164M 125.347656 23L 125.347656 83M 29.347656 83L 29.347656 23M 125.3474 82.871094C 125.3474 90.341794 120.7018 97.170994 113.3474 100.511994C 110.4109 101.845994 107.9063 103.736094 105.9568 106.001194M 29.3474 82.871094C 29.3474 90.341794 24.7018 97.170994 17.3474 100.511994C 14.4326 101.836194 11.9432 103.708294 10 105.951194"></path></g></g></g><g id="g-root-2.border-2_fr_dkgk2ucth0y3-stroke" data-item-order="-435269" transform="translate(39, 519)"><g id="2.border-2_fr_dkgk2ucth0y3-stroke" fill="none" stroke-linecap="round" stroke-linejoin="round" stroke-miterlimit="4" stroke="#1eabda" stroke-width="2"><g><path d="M 10 57C 10 31.0426 31.0426 10 57 10L 110.5 10M 10 58.999969L 10 56.980469M 10 59C 10 84.9576 31 106.0004 57 106.0004L 86.5 106.0004M 207 106.0004L 183 106.0004M 206.64299 10L 634.00019 10L 634.00019 106L 206.64319 106"></path></g></g></g><g id="g-root-2.icon_12_fr_9mismctgzd9-stroke" data-item-order="-435247" transform="translate(115.65234375, 519)"><g id="2.icon_12_fr_9mismctgzd9-stroke" fill="none" stroke-linecap="round" stroke-linejoin="round" stroke-miterlimit="4" stroke="#de8431" stroke-width="2"><g><path d="M 29.347656 23.4164C 29.347656 18.4588 31.036556 13.7576 33.989656 10M 129.989656 10C 127.036556 13.7576 125.347656 18.4587 125.347656 23.4164M 125.347656 23L 125.347656 83M 29.347656 83L 29.347656 23M 125.3474 82.871094C 125.3474 90.341794 120.7018 97.170994 113.3474 100.511994C 110.4109 101.845994 107.9063 103.736094 105.9568 106.001194M 29.3474 82.871094C 29.3474 90.341794 24.7018 97.170994 17.3474 100.511994C 14.4326 101.836194 11.9432 103.708294 10 105.951194"></path></g></g></g><g id="g-root-1.border-1_fr_18egfqectidqn-stroke" data-item-order="-435225" transform="translate(15, 615)"><g id="1.border-1_fr_18egfqectidqn-stroke" fill="none" stroke-linecap="round" stroke-linejoin="round" stroke-miterlimit="4" stroke="#de8431" stroke-width="2"><g><path d="M 10 57C 10 31.0426 31.0426 10 57 10L 110.5 10M 658.00029 57L 658.00029 10L 206.64299 10M 658 56.980469L 658 58.999969M 10 58.999969L 10 56.980469M 10 59C 10 84.9576 31.8521 106.0004 58.8081 106.0004L 609.192 106.0004C 636.1479 106.0004 658 84.9576 658 59"></path></g></g></g><g id="g-root-1.icon_15_fr_qn6f8mctig3t-stroke" data-item-order="-435205" transform="translate(111, 615)"><g id="1.icon_15_fr_qn6f8mctig3t-stroke" fill="none" stroke-linecap="round" stroke-linejoin="round" stroke-miterlimit="4" stroke="#de8431" stroke-width="2"><g><path d="M 10 23.4164C 10 18.4588 11.6889 13.7576 14.642 10M 110.642 10C 107.6889 13.7576 106 18.4587 106 23.4164M 106 23L 106 60M 10 60L 10 23M 10 59.75C 10 85.2927 30.7065 105.9992 56.2492 105.9992L 59.7508 105.9992C 85.2935 105.9992 106 85.2927 106 59.75"></path></g></g></g><g id="g-root-tx_aseguran_1czw7mucto003-stroke" data-item-order="0" transform="translate(327, 279)"></g><g id="g-root-tx_document_90w7fqctnzey-stroke" data-item-order="0" transform="translate(327, 243)"></g><g id="g-root-exch_1hgynxicto1dx-stroke" data-item-order="0" transform="translate(207, 351)"><g id="exch_1hgynxicto1dx-stroke" fill="none" stroke-linecap="round" stroke-linejoin="round" stroke-miterlimit="4" stroke="#92bd39" stroke-width="2"><g><path d="M 47 37L 47 41.5C 47.001106 45.642593 43.642593 49.001106 39.5 49L 36 49M 43 41L 47 37L 51 41M 39 52L 36 49L 39 46M 47.737999 31C 51.318539 30.518911 53.993168 27.466709 54 23.854C 54.026661 21.943102 53.274208 20.103699 51.915905 18.759357C 50.557602 17.415014 48.710522 16.681601 46.800003 16.728001C 45.24017 13.261237 41.801445 11.022938 38 11C 32.784004 11.065718 28.524866 15.188879 28.290001 20.400002C 26.7302 20.086792 25.112473 20.496941 23.890314 21.515472C 22.668154 22.534004 21.973103 24.051292 22 25.642C 21.987442 27.103027 22.57655 28.504864 23.62899 29.518339C 24.681429 30.531813 26.104485 31.06764 27.563999 31ZM 16 37L 26 37C 27.10457 37 28 37.895432 28 39L 28 55C 28 56.104568 27.10457 57 26 57L 16 57C 14.895431 57 14 56.104568 14 55L 14 39C 14 37.895432 14.895431 37 16 37ZM 21 51.5C 20.723858 51.5 20.5 51.723858 20.5 52C 20.5 52.276142 20.723858 52.5 21 52.5C 21.276142 52.5 21.5 52.276142 21.5 52C 21.5 51.723858 21.276142 51.5 21 51.5L 21 51.5"></path></g></g></g><g id="g-root-tx_desarrol_hvwqlictpf5y-stroke" data-item-order="0" transform="translate(303, 339)"></g><g id="g-root-tx_4_9255lycto1l0-stroke" data-item-order="0" transform="translate(123, 357)"></g><g id="g-root-tx_construy_1uqjr1ictpe6n-stroke" data-item-order="0" transform="translate(303, 375)"></g><g id="g-root-tx_aprendie_1lw5oyucttm2r-stroke" data-item-order="0" transform="translate(231, 663)"></g><g id="g-root-tx_5_deuaauctmn0g-stroke" data-item-order="0" transform="translate(147, 261)"></g><g id="g-root-tx_3_1cz9qjqctpgjs-stroke" data-item-order="0" transform="translate(99, 453)"></g><g id="g-root-2_mcz6w6ctpgjt-stroke" data-item-order="0" transform="translate(183, 447)"><g id="2_mcz6w6ctpgjt-stroke" fill="none" stroke-linecap="round" stroke-linejoin="round" stroke-miterlimit="4" stroke="#3cc583" stroke-width="2"><g><path d="M 15 11L 53 11C 53 11 57 11 57 15L 57 53C 57 53 57 57 53 57L 15 57C 15 57 11 57 11 53L 11 15C 11 15 11 11 15 11M 11 21L 57 21M 18 15.5C 18.276142 15.5 18.5 15.723858 18.5 16C 18.5 16.276142 18.276142 16.5 18 16.5C 17.723858 16.5 17.5 16.276142 17.5 16C 17.5 15.723858 17.723858 15.5 18 15.5M 24 15.5C 24.276142 15.5 24.5 15.723858 24.5 16C 24.5 16.276142 24.276142 16.5 24 16.5C 23.723858 16.5 23.5 16.276142 23.5 16C 23.5 15.723858 23.723858 15.5 24 15.5M 30 15.5C 30.276142 15.5 30.5 15.723858 30.5 16C 30.5 16.276142 30.276142 16.5 30 16.5C 29.723858 16.5 29.5 16.276142 29.5 16C 29.5 15.723858 29.723858 15.5 30 15.5M 27 21L 27 57M 34 25L 50 25C 50 25 51 25 51 26L 51 34C 51 34 51 35 50 35L 34 35C 34 35 33 35 33 34L 33 26C 33 26 33 25 34 25M 34 41L 50 41C 50 41 51 41 51 42L 51 50C 51 50 51 51 50 51L 34 51C 34 51 33 51 33 50L 33 42C 33 42 33 41 34 41M 15.042 25L 19 25M 19.042 29L 23 29M 19.042 33L 23 33M 19.042 37L 23 37M 15.042 41L 19 41M 19.042 45L 23 45M 19.042 49L 23 49"></path></g></g></g><g id="g-root-tx_desarrol_18egfqects8oy-stroke" data-item-order="0" transform="translate(279, 435)"></g><g id="g-root-tx_creandoi_m7ze7acts7wr-stroke" data-item-order="0" transform="translate(279, 471)"></g><g id="g-root-tx_implemen_18gyc2uctmm87-stroke" data-item-order="0" transform="translate(351, 159)"></g><g id="g-root-2_1qd7ytkb5t98j-stroke" data-item-order="0" transform="translate(255, 147)"><g id="2_1qd7ytkb5t98j-stroke" fill="none" stroke-linecap="round" stroke-linejoin="round" stroke-miterlimit="4" stroke="#de8431" stroke-width="2"><g><path d="M 20.5 38.5L 20.5 47.5L 11.5 47.5M 47.5 29.5L 47.5 20.5L 56.5 20.5M 48.099998 20.5C 51.5 24.1 53.5 28.700001 53.5 34.099998C 53.5 44.900002 44.700001 53.700001 33.900002 53.700001C 31.299999 53.700001 28.700041 53.099998 26.300039 52.299999M 19.9 47.5C 16.5 43.900002 14.5 39.299999 14.5 33.900002C 14.5 23.10004 23.299999 14.300039 34.099998 14.300039C 36.700001 14.300039 39.299999 14.90004 41.700001 15.70004M 33.900002 35.099998C 33.347801 35.099998 32.900002 34.652397 32.900002 34.099998C 32.900002 33.547798 33.347801 33.099998 33.900002 33.099998M 33.899799 35.099998C 34.452 35.099998 34.899799 34.652397 34.899799 34.099998C 34.899799 33.547798 34.452 33.099998 33.899799 33.099998M 10 10M 35.700001 25.7001L 36.299999 27.7001C 36.5 28.500099 37.299999 28.900101 37.900002 28.7001L 39.900002 28.3001C 41.700001 27.900101 42.900002 30.1 41.700001 31.5L 40.299999 33.099998C 39.700001 33.700001 39.700001 34.5 40.299999 35.099998L 41.700001 36.700001C 42.900002 38.099998 41.700001 40.299999 39.900002 39.900002L 37.900002 39.5C 37.099998 39.299999 36.5 39.700001 36.299999 40.5L 35.700001 42.5C 35.099998 44.299999 32.700001 44.299999 32.099998 42.5L 31.5 40.5C 31.299999 39.700001 30.5 39.299999 29.899981 39.5L 27.899981 39.900002C 26.099979 40.299999 24.899979 38.099998 26.099979 36.700001L 27.499981 35.099998C 28.099979 34.5 28.099979 33.700001 27.499981 33.099998L 26.099979 31.5C 24.899979 30.1 26.099979 27.900101 27.899981 28.3001L 29.899981 28.7001C 30.700001 28.900101 31.299999 28.500099 31.5 27.7001L 32.099998 25.7001C 32.700001 23.900101 35.299999 23.900101 35.700001 25.7001Z"></path></g></g></g><g id="g-root-tx_2_1umswiucts7po-stroke" data-item-order="0" transform="translate(75, 549)"></g><g id="g-root-bran_1cviw12ctsa2t-stroke" data-item-order="0" transform="translate(159, 543)"><g id="bran_1cviw12ctsa2t-stroke" fill="none" stroke-linecap="round" stroke-linejoin="round" stroke-miterlimit="4" stroke="#1eabda" stroke-width="2"><g><path d="M 17.644001 17.133999C 17.643053 20.522383 20.389614 23.269712 23.778 23.269712C 27.166382 23.269712 29.912945 20.522383 29.911999 17.133999C 29.912945 13.745616 27.166382 10.998286 23.778 10.998286C 20.389614 10.998286 17.643053 13.745616 17.643999 17.133999M 17.644001 50.866001C 17.643053 54.254379 20.389614 57.001709 23.778 57.001709C 27.166382 57.001709 29.912945 54.254379 29.911999 50.865997C 29.912945 47.477615 27.166382 44.730286 23.778 44.730286C 20.389614 44.730286 17.643053 47.477615 17.643999 50.865997M 38.087997 23.265999C 38.087051 26.654383 40.833614 29.401712 44.221996 29.401712C 47.610382 29.401712 50.356945 26.654383 50.355999 23.265999C 50.356945 19.877617 47.610382 17.130285 44.221996 17.130285C 40.833614 17.130285 38.087051 19.877617 38.087997 23.265999M 23.778 23.265999L 23.778 44.734001M 44.222 29.4C 44.222004 33.916588 40.560585 37.578003 36.043999 37.578003L 29.912001 37.577999C 26.524284 37.577999 23.778 40.324284 23.778 43.711998"></path></g></g></g><g id="g-root-tx_controld_1lxen52ctsa32-stroke" data-item-order="0" transform="translate(255, 531)"></g><g id="g-root-tx_dominand_18mkluucts8i7-stroke" data-item-order="0" transform="translate(255, 567)"></g><g id="g-root-tx_6_vvl2ctig3w-stroke" data-item-order="0" transform="translate(171, 153)"></g><g id="g-root-tx_automati_4hybvqctmln2-stroke" data-item-order="0" transform="translate(351, 123)"></g><g id="g-root-tx_1_dkgk2ucts9ag-stroke" data-item-order="0" transform="translate(51, 645)"></g><g id="g-root-1_1uux2nacts8ap-stroke" data-item-order="0" transform="translate(135, 639)"><g id="1_1uux2nacts8ap-stroke" fill="none" stroke-linecap="round" stroke-linejoin="round" stroke-miterlimit="4" stroke="#de8431" stroke-width="2"><g><path d="M 33 43C 33 49.627419 38.372581 55 45 55C 51.627419 55 57 49.627419 57 43C 57 36.372581 51.627419 31.000002 45 31.000002C 38.372581 31.000002 33 36.372581 33 43M 48 48.200001C 46.143593 49.271797 43.856407 49.271797 42 48.200001M 45 31C 46.656857 31 48 32.343147 48 34C 48 35.656853 46.656857 37 45 37M 50.25 40C 50.664215 40 51 40.335785 51 40.75M 49.5 40.75C 49.5 40.335785 49.835789 40 50.25 40M 50.25 41.5C 49.835789 41.5 49.5 41.164215 49.5 40.75M 51 40.75C 51 41.164215 50.664215 41.5 50.25 41.5M 39.75 40C 40.164215 40 40.5 40.335785 40.5 40.75M 39 40.75C 39 40.335785 39.335785 40 39.75 40M 39.75 41.5C 39.335785 41.5 39 41.164215 39 40.75M 40.5 40.75C 40.5 41.164215 40.164215 41.5 39.75 41.5M 28.5 47L 15 47C 12.790861 47 11 45.209141 11 43L 11 17C 11 14.790861 12.790861 13 15 13L 45 13C 47.209141 13 49 14.790861 49 17L 49 27M 11 23L 49 23M 18 17.5C 18.276142 17.5 18.5 17.723858 18.5 18C 18.5 18.276142 18.276142 18.5 18 18.5C 17.723858 18.5 17.5 18.276142 17.5 18C 17.5 17.723858 17.723858 17.5 18 17.5M 24 17.5C 24.276142 17.5 24.5 17.723858 24.5 18C 24.5 18.276142 24.276142 18.5 24 18.5C 23.723858 18.5 23.5 18.276142 23.5 18C 23.5 17.723858 23.723858 17.5 24 17.5M 30 17.5C 30.276142 17.5 30.5 17.723858 30.5 18C 30.5 18.276142 30.276142 18.5 30 18.5C 29.723858 18.5 29.5 18.276142 29.5 18C 29.5 17.723858 29.723858 17.5 30 17.5"></path></g></g></g><g id="g-root-tx_fundamen_4lp6eecttn2i-stroke" data-item-order="0" transform="translate(231, 627)"></g><g id="g-root-chec_4090mctmlfl-stroke" data-item-order="0" transform="translate(231, 255)"><g id="chec_4090mctmlfl-stroke" fill="none" stroke-linecap="round" stroke-linejoin="round" stroke-miterlimit="4" stroke="#1eabda" stroke-width="2"><g><path d="M 42.57143 15.142858L 47.714287 15.142858C 49.607834 15.142858 51.142857 16.677881 51.142857 18.571428L 51.142857 52.857143C 51.142857 54.750694 49.607834 56.285713 47.714287 56.285713L 20.285715 56.285713C 18.392166 56.285713 16.857143 54.750694 16.857143 52.857143L 16.857143 18.571428C 16.857143 16.677881 18.392166 15.142858 20.285715 15.142858L 25.428572 15.142858M 28.857143 11.714286L 39.142857 11.714286C 39.142857 11.714286 42.57143 11.714286 42.57143 15.142858L 42.57143 16.857143C 42.57143 16.857143 42.57143 20.285715 39.142857 20.285715L 28.857143 20.285715C 28.857143 20.285715 25.428572 20.285715 25.428572 16.857143L 25.428572 15.142858C 25.428572 15.142858 25.428572 11.714286 28.857143 11.714286M 25.428572 39.142857L 32.285713 44.285713L 40.857143 30.571428"></path></g></g></g></g></g></svg>